<svg width="512" height="512" viewBox="0 0 512 512" fill="none" xmlns="http://www.w3.org/2000/svg">
<path d="M502.654 233.436L278.564 9.34672C266.102 -3.11557 245.898 -3.11557 233.436 9.34672L9.34619 233.436C-3.11539 245.898 -3.11539 266.103 9.34619 278.564L233.436 502.654C245.898 515.116 266.102 515.116 278.564 502.654L502.654 278.564C515.115 266.103 515.115 245.898 502.654 233.436Z" fill="url(#paint0_linear_210_93)"/>
<path d="M344.136 250.145L229.319 170.343C223.437 166.26 215.393 170.465 215.393 177.627V337.231C215.393 344.392 223.437 348.597 229.319 344.514L344.136 264.712C349.211 261.186 349.211 253.672 344.136 250.145Z" fill="white"/>
<defs>
<linearGradient id="paint0_linear_210_93" x1="244.279" y1="464.554" x2="269.176" y2="21.4989" gradientUnits="userSpaceOnUse">
<stop stop-color="#1155D9"/>
<stop offset="0.07" stop-color="#1C55DC"/>
<stop offset="0.39" stop-color="#5058EB"/>
<stop offset="0.54" stop-color="#655AF1"/>
<stop offset="0.76" stop-color="#7B5BF5"/>
</linearGradient>
</defs>
</svg>
